<svg version="1.1" id="Layer_1" xmlns="http://www.w3.org/2000/svg" xmlns:xlink="http://www.w3.org/1999/xlink" x="0px" y="0px"
	 width="612px" height="792px" viewBox="0 0 612 792" enable-background="new 0 0 612 792" xml:space="preserve">
<linearGradient id="SVGID_1_" gradientUnits="userSpaceOnUse" x1="255.4604" y1="413.377" x2="224.4745" y2="370.772">
	<stop  offset="0" style="stop-color:#BCBEC0"/>
	<stop  offset="0.1334" style="stop-color:#C1C3C5"/>
	<stop  offset="0.3126" style="stop-color:#CFD1D2"/>
	<stop  offset="0.517" style="stop-color:#E6E7E8"/>
	<stop  offset="0.6685" style="stop-color:#FFFFFF"/>
</linearGradient>
<path fill-rule="evenodd" clip-rule="evenodd" fill="url(#SVGID_1_)" d="M252.302,386.522c-0.044-2.674-2.821-4.77-5.055-5.685
	c-2.032-0.832-5.86-1.389-6.935,1.211c-4.542-4.314-9.084-8.628-13.627-12.941c1.875,3.687,3.75,7.375,5.626,11.061
	c1.045,2.056,2.091,4.112,3.138,6.168c0.527,1.037,1.055,2.067,1.414,3.178c0.432,1.337,0.982,3.16,0.506,4.552
	c-0.347,1.015-1.303,1.969-1.912,2.828c-3.005,4.24-6.012,8.482-9.017,12.722c-0.368,0.52-0.736,1.037-1.104,1.561
	c3.884-1.201,7.768-2.396,11.651-3.598c2.329-0.717,4.658-1.436,6.987-2.158c0.814-0.248,1.648-0.705,2.493-0.41
	c2.308,0.813,4.055,2.811,5.647,4.584c2.612,2.914,5.224,5.832,7.836,8.746c6.739,7.516,13.476,15.033,20.212,22.551
	c0.48,0.533,0.958,1.068,1.437,1.602c-4.225-6.791-8.452-13.578-12.677-20.369c-2.723-4.373-5.446-8.75-8.168-13.125
	c-1.214-1.953-2.536-3.877-3.599-5.918c-0.743-1.426-1.387-2.98-1.66-4.574c-0.242-1.409,0.167-1.983,0.851-3.159
	c2.152-3.697,4.305-7.393,6.457-11.092C259.304,385.013,255.804,385.767,252.302,386.522"/>
<path fill-rule="evenodd" clip-rule="evenodd" fill="#BCBEC0" d="M226.861,334.333c-2.695,0.463-6.756,1.245-10.119,2.408
	c-3.545,1.229-6.04,3.667-5.736,6.031c0.303,2.361,9.47,5.087,18.841,9.049c10.629,4.493,21.566,9.398,29.178,21.033
	c7.611,11.632-12.477,20.704-39.791,24.453c-36.383,5-70.16,5.448-106.266,4.507c33.579-6.056,152.133-11.352,92.624-46.439
	c-6.121-3.608-8.598-10.409-7.052-13.948c1.548-3.538,7.139-4.964,13.395-5.955C217.906,334.53,224.275,334.265,226.861,334.333
	c-1.995,0.483-4.893,1.294-6.619,2.499c-1.814,1.272-2.14,3.77,1.249,6.213c3.387,2.441,15.258,5.512,29.5,9.603
	c16.157,4.637,33.703,9.437,56.295,21.462c22.598,12.024,15.078,21.419-6.388,25.323c-15.141,2.755-54.34,2.618-92.449,1.978
	c12.694,0.055,106.322-2.026,73.931-27.86c-14.855-11.851-29.488-16.586-42.813-21.158c-11.744-4.032-21.764-7.063-23.555-9.47
	c-1.792-2.406-0.334-4.877,2.389-6.129C220.983,335.604,224.493,334.807,226.861,334.333L226.861,334.333z"/>
<linearGradient id="SVGID_2_" gradientUnits="userSpaceOnUse" x1="237.3174" y1="402.4629" x2="237.3174" y2="335.3877">
	<stop  offset="0.3876" style="stop-color:#D71920"/>
	<stop  offset="0.5736" style="stop-color:#B81319"/>
	<stop  offset="0.7518" style="stop-color:#9F0B0F"/>
	<stop  offset="0.9" style="stop-color:#900507"/>
	<stop  offset="1" style="stop-color:#8B0304"/>
</linearGradient>
<path fill-rule="evenodd" clip-rule="evenodd" fill="url(#SVGID_2_)" d="M222.146,335.397c-2.328,0.465-5.798,1.246-8.462,2.414
	c-2.809,1.226-4.853,2.81-3.596,5.172c1.256,2.366,10.187,5.342,20.571,9.306c11.78,4.496,24.768,9.15,36.666,20.789
	c11.897,11.642-3.141,20.716-27.114,24.473c-31.931,5.005-63.305,5.455-97.422,4.518c28.881-6.062,137.456-11.369,67.428-46.472
	c-7.202-3.609-12.003-9.399-12.015-12.94c-0.009-3.539,5.034-5.125,10.472-6.115C213.861,335.595,219.706,335.331,222.146,335.397
	c-1.665,0.483-4.041,1.295-5.152,2.502c-1.176,1.274-1.166,2.915,3.002,5.356c4.17,2.443,16.522,5.516,31.511,9.604
	c17,4.64,35.368,9.442,61.423,21.472c26.057,12.028,22.895,21.428,4.449,25.338c-13.012,2.758-49.688,2.621-85.56,1.987
	c11.889,0.052,98.499-2.036,57.609-27.885c-18.753-11.855-34.373-16.591-48.7-21.166c-12.631-4.032-23.237-7.064-25.9-9.471
	c-2.662-2.409-1.602-4.022,0.428-5.274C217.177,336.671,220.13,335.872,222.146,335.397L222.146,335.397z"/>
<path fill-rule="evenodd" clip-rule="evenodd" fill="#8B0304" d="M237.905,355.079c0.772,0.309,1.363,0.373,1.781,1.049
	c0.353,0.566,0.703,1.131,1.055,1.697c1.212,1.954,2.425,3.908,3.638,5.862c1.85,2.979,3.7,5.96,5.548,8.94
	c1.989-3.212,6.331-4.01,9.602-2.413c3.276,1.6,5.354,5.287,4.426,8.915c1.204-0.334,2.41-0.665,3.615-0.997
	c0.739-0.205,1.479-0.409,2.215-0.611c0.672-0.186,0.728-0.357,1.025,0.338c1.258,2.95,0.581,5.976-1.463,8.38
	c-2.705,3.187-6.775,5.129-10.591,6.623c-5.567,2.179-11.457,3.517-17.341,4.498c-2.073,0.344-4.153,0.648-6.234,0.942
	c1.63-1.896,3.263-3.795,4.893-5.692c1.268-1.473,1.537-3.878,1.73-5.731c0.426-4.147-0.51-8.354-1.101-12.439
	C239.77,367.985,238.837,361.532,237.905,355.079 M262.62,402.025c-10.112-0.045-20.224-0.182-30.333-0.363
	c10.13-0.348,20.225-0.588,30.329-1.614C262.59,400.705,262.588,401.365,262.62,402.025"/>
<linearGradient id="SVGID_3_" gradientUnits="userSpaceOnUse" x1="188.9448" y1="341.8975" x2="312.3145" y2="341.8975">
	<stop  offset="0.3876" style="stop-color:#0083CA"/>
	<stop  offset="0.6017" style="stop-color:#0071B4"/>
	<stop  offset="0.8393" style="stop-color:#0063A3"/>
	<stop  offset="1" style="stop-color:#005E9E"/>
</linearGradient>
<path fill-rule="evenodd" clip-rule="evenodd" fill="url(#SVGID_3_)" d="M231.714,324.509c32.503-5.746,67.412-0.31,77.71,12.095
	c6.986,8.411,0.902,17.928-13.874,24.973c1.004-3.415,0.271-6.875-2.46-10.165c-10.299-12.406-45.209-17.841-77.709-12.097
	c-10.458,1.849-19.424,4.637-26.436,7.979C191.729,337.837,207.834,328.73,231.714,324.509L231.714,324.509z"/>
<linearGradient id="SVGID_4_" gradientUnits="userSpaceOnUse" x1="188.9448" y1="347.5728" x2="301.9814" y2="347.5728">
	<stop  offset="0" style="stop-color:#005E9E"/>
	<stop  offset="0.6685" style="stop-color:#0083CA"/>
</linearGradient>
<path fill-rule="evenodd" clip-rule="evenodd" fill="url(#SVGID_4_)" d="M301.489,358.319c-1.781,1.132-3.764,2.222-5.938,3.258
	c1.004-3.415,0.271-6.875-2.46-10.165c-10.299-12.406-45.209-17.841-77.709-12.097c-10.458,1.849-19.424,4.637-26.436,7.979
	c0.021-0.067,0.043-0.135,0.065-0.201c7.534-4.783,18.675-8.813,32.372-11.233c32.505-5.746,67.41-0.313,77.713,12.093
	C301.877,351.309,302.585,354.84,301.489,358.319L301.489,358.319z"/>
<path fill-rule="evenodd" clip-rule="evenodd" d="M270.917,373.328c0.706-2.777-0.831-5.728-3.371-6.976
	c-2.608-1.283-6.1-0.779-7.703,1.844c-3.256-5.244-6.51-10.488-9.765-15.732c1.112,7.699,2.453,15.397,3.333,23.125
	c0.307,2.688,0.294,6.478-1.574,8.647c-2.8,3.252-5.6,6.51-8.399,9.766c-3.295,3.828-6.59,7.658-9.886,11.49
	c7.781-2.861,15.562-5.728,23.342-8.593c2.275-0.841,4.274,2.883,5.058,4.511c1.159,2.4,2.318,4.807,3.477,7.213
	c4.634,9.617,9.268,19.232,13.901,28.85c0.825,1.709,1.648,3.42,2.471,5.127c-1.813-7.479-3.627-14.959-5.441-22.438
	c-1.957-8.072-3.913-16.145-5.871-24.218c-0.664-2.738-1.03-5.972-0.294-8.734c0.291-1.093,1.011-1.853,1.686-2.741
	c1.548-2.038,3.095-4.075,4.644-6.115c2.105-2.77,4.207-5.539,6.311-8.309C278.863,371.139,274.89,372.233,270.917,373.328"/>
<path fill-rule="evenodd" clip-rule="evenodd" fill="#FFFFFF" d="M263.5,372.428c-1.187-1.591-1.002-3.667,0.463-4.716
	c1.524-1.09,3.87-0.665,5.22,0.947c1.352,1.612,1.209,3.816-0.313,4.905c-0.511,0.368-1.114,0.56-1.741,0.597l0.213,1.986
	c0.308-0.034,0.625-0.095,0.954-0.187l9.892-2.725l-8.065,10.619c-1.464,1.927-1.648,7.293-0.577,11.708l6.026,24.865
	l-10.127-21.021c-2.046-4.243-5.108-6.653-7.515-5.767l-15.389,5.663l12.692-14.752c1.819-2.117,2.348-7.131,1.819-10.797
	l-1.628-11.247l5.553,8.946c0.483,0.776,0.949,1.458,1.408,2.044L263.5,372.428L263.5,372.428z"/>
</svg>
