<?xml version="1.0" encoding="utf-8"?>
<!-- Generator: Adobe Illustrator 15.0.0, SVG Export Plug-In . SVG Version: 6.00 Build 0)  -->
<!DOCTYPE svg PUBLIC "-//W3C//DTD SVG 1.1//EN" "http://www.w3.org/Graphics/SVG/1.1/DTD/svg11.dtd">
<svg version="1.1" id="Layer_1" xmlns="http://www.w3.org/2000/svg" xmlns:xlink="http://www.w3.org/1999/xlink" x="0px" y="0px"
	 width="612px" height="792px" viewBox="0 0 612 792" enable-background="new 0 0 612 792" xml:space="preserve">
<linearGradient id="SVGID_1_" gradientUnits="userSpaceOnUse" x1="255.4604" y1="413.377" x2="224.4745" y2="370.772">
	<stop  offset="0" style="stop-color:#BCBEC0"/>
	<stop  offset="0.1334" style="stop-color:#C1C3C5"/>
	<stop  offset="0.3126" style="stop-color:#CFD1D2"/>
	<stop  offset="0.517" style="stop-color:#E6E7E8"/>
	<stop  offset="0.6685" style="stop-color:#FFFFFF"/>
</linearGradient>
<path fill-rule="evenodd" clip-rule="evenodd" fill="url(#SVGID_1_)" d="M252.302,386.522c-0.044-2.674-2.821-4.77-5.055-5.685
	c-2.032-0.832-5.86-1.389-6.935,1.211c-4.542-4.314-9.084-8.628-13.627-12.941c1.875,3.687,3.75,7.375,5.626,11.061
	c1.045,2.056,2.091,4.112,3.138,6.168c0.527,1.037,1.055,2.067,1.414,3.178c0.432,1.337,0.982,3.16,0.506,4.552
	c-0.347,1.015-1.303,1.969-1.912,2.828c-3.005,4.24-6.012,8.482-9.017,12.722c-0.368,0.52-0.736,1.037-1.104,1.561
	c3.884-1.201,7.768-2.396,11.651-3.598c2.329-0.717,4.658-1.436,6.987-2.158c0.814-0.248,1.648-0.705,2.493-0.41
	c2.308,0.813,4.055,2.811,5.647,4.584c2.612,2.914,5.224,5.832,7.836,8.746c6.739,7.516,13.476,15.033,20.212,22.551
	c0.48,0.533,0.958,1.068,1.437,1.602c-4.225-6.791-8.452-13.578-12.677-20.369c-2.723-4.373-5.446-8.75-8.168-13.125
	c-1.214-1.953-2.536-3.877-3.599-5.918c-0.743-1.426-1.387-2.98-1.66-4.574c-0.242-1.409,0.167-1.983,0.851-3.159
	c2.152-3.697,4.305-7.393,6.457-11.092C259.304,385.013,255.804,385.767,252.302,386.522"/>
<polygon fill-rule="evenodd" clip-rule="evenodd" fill="#D71920" points="85.667,432.605 536.379,432.605 536.379,435.053 
	85.667,435.053 85.667,432.605 "/>
<path fill-rule="evenodd" clip-rule="evenodd" fill="#BCBEC0" d="M226.861,334.333c-2.695,0.463-6.756,1.245-10.119,2.408
	c-3.545,1.229-6.04,3.667-5.736,6.031c0.303,2.361,9.47,5.087,18.841,9.049c10.629,4.493,21.566,9.398,29.178,21.033
	c7.611,11.632-12.477,20.704-39.791,24.453c-36.383,5-70.16,5.448-106.266,4.507c33.579-6.056,152.133-11.352,92.624-46.439
	c-6.121-3.608-8.598-10.409-7.052-13.948c1.548-3.538,7.139-4.964,13.395-5.955C217.906,334.53,224.275,334.265,226.861,334.333
	c-1.995,0.483-4.893,1.294-6.619,2.499c-1.814,1.272-2.14,3.77,1.249,6.213c3.387,2.441,15.258,5.512,29.5,9.603
	c16.157,4.637,33.703,9.437,56.295,21.462c22.598,12.024,15.078,21.419-6.388,25.323c-15.141,2.755-54.34,2.618-92.449,1.978
	c12.694,0.055,106.322-2.026,73.931-27.86c-14.855-11.851-29.488-16.586-42.813-21.158c-11.744-4.032-21.764-7.063-23.555-9.47
	c-1.792-2.406-0.334-4.877,2.389-6.129C220.983,335.604,224.493,334.807,226.861,334.333L226.861,334.333z"/>
<linearGradient id="SVGID_2_" gradientUnits="userSpaceOnUse" x1="237.3174" y1="402.4629" x2="237.3174" y2="335.3877">
	<stop  offset="0.3876" style="stop-color:#D71920"/>
	<stop  offset="0.5736" style="stop-color:#B81319"/>
	<stop  offset="0.7518" style="stop-color:#9F0B0F"/>
	<stop  offset="0.9" style="stop-color:#900507"/>
	<stop  offset="1" style="stop-color:#8B0304"/>
</linearGradient>
<path fill-rule="evenodd" clip-rule="evenodd" fill="url(#SVGID_2_)" d="M222.146,335.397c-2.328,0.465-5.798,1.246-8.462,2.414
	c-2.809,1.226-4.853,2.81-3.596,5.172c1.256,2.366,10.187,5.342,20.571,9.306c11.78,4.496,24.768,9.15,36.666,20.789
	c11.897,11.642-3.141,20.716-27.114,24.473c-31.931,5.005-63.305,5.455-97.422,4.518c28.881-6.062,137.456-11.369,67.428-46.472
	c-7.202-3.609-12.003-9.399-12.015-12.94c-0.009-3.539,5.034-5.125,10.472-6.115C213.861,335.595,219.706,335.331,222.146,335.397
	c-1.665,0.483-4.041,1.295-5.152,2.502c-1.176,1.274-1.166,2.915,3.002,5.356c4.17,2.443,16.522,5.516,31.511,9.604
	c17,4.64,35.368,9.442,61.423,21.472c26.057,12.028,22.895,21.428,4.449,25.338c-13.012,2.758-49.688,2.621-85.56,1.987
	c11.889,0.052,98.499-2.036,57.609-27.885c-18.753-11.855-34.373-16.591-48.7-21.166c-12.631-4.032-23.237-7.064-25.9-9.471
	c-2.662-2.409-1.602-4.022,0.428-5.274C217.177,336.671,220.13,335.872,222.146,335.397L222.146,335.397z"/>
<path fill-rule="evenodd" clip-rule="evenodd" fill="#8B0304" d="M237.905,355.079c0.772,0.309,1.363,0.373,1.781,1.049
	c0.353,0.566,0.703,1.131,1.055,1.697c1.212,1.954,2.425,3.908,3.638,5.862c1.85,2.979,3.7,5.96,5.548,8.94
	c1.989-3.212,6.331-4.01,9.602-2.413c3.276,1.6,5.354,5.287,4.426,8.915c1.204-0.334,2.41-0.665,3.615-0.997
	c0.739-0.205,1.479-0.409,2.215-0.611c0.672-0.186,0.728-0.357,1.025,0.338c1.258,2.95,0.581,5.976-1.463,8.38
	c-2.705,3.187-6.775,5.129-10.591,6.623c-5.567,2.179-11.457,3.517-17.341,4.498c-2.073,0.344-4.153,0.648-6.234,0.942
	c1.63-1.896,3.263-3.795,4.893-5.692c1.268-1.473,1.537-3.878,1.73-5.731c0.426-4.147-0.51-8.354-1.101-12.439
	C239.77,367.985,238.837,361.532,237.905,355.079 M262.62,402.025c-10.112-0.045-20.224-0.182-30.333-0.363
	c10.13-0.348,20.225-0.588,30.329-1.614C262.59,400.705,262.588,401.365,262.62,402.025"/>
<linearGradient id="SVGID_3_" gradientUnits="userSpaceOnUse" x1="188.9448" y1="341.8975" x2="312.3145" y2="341.8975">
	<stop  offset="0.3876" style="stop-color:#0083CA"/>
	<stop  offset="0.6017" style="stop-color:#0071B4"/>
	<stop  offset="0.8393" style="stop-color:#0063A3"/>
	<stop  offset="1" style="stop-color:#005E9E"/>
</linearGradient>
<path fill-rule="evenodd" clip-rule="evenodd" fill="url(#SVGID_3_)" d="M231.714,324.509c32.503-5.746,67.412-0.31,77.71,12.095
	c6.986,8.411,0.902,17.928-13.874,24.973c1.004-3.415,0.271-6.875-2.46-10.165c-10.299-12.406-45.209-17.841-77.709-12.097
	c-10.458,1.849-19.424,4.637-26.436,7.979C191.729,337.837,207.834,328.73,231.714,324.509L231.714,324.509z"/>
<linearGradient id="SVGID_4_" gradientUnits="userSpaceOnUse" x1="188.9448" y1="347.5728" x2="301.9814" y2="347.5728">
	<stop  offset="0" style="stop-color:#005E9E"/>
	<stop  offset="0.6685" style="stop-color:#0083CA"/>
</linearGradient>
<path fill-rule="evenodd" clip-rule="evenodd" fill="url(#SVGID_4_)" d="M301.489,358.319c-1.781,1.132-3.764,2.222-5.938,3.258
	c1.004-3.415,0.271-6.875-2.46-10.165c-10.299-12.406-45.209-17.841-77.709-12.097c-10.458,1.849-19.424,4.637-26.436,7.979
	c0.021-0.067,0.043-0.135,0.065-0.201c7.534-4.783,18.675-8.813,32.372-11.233c32.505-5.746,67.41-0.313,77.713,12.093
	C301.877,351.309,302.585,354.84,301.489,358.319L301.489,358.319z"/>
<path fill-rule="evenodd" clip-rule="evenodd" fill="#FFFFFF" d="M544.651,405.981l-8.701,23.078h-8.342l0.594-1.748
	c-1.34,0.734-2.723,1.283-4.152,1.648s-2.92,0.549-4.471,0.549c-3.277,0-5.572-0.852-6.885-2.547
	c-1.314-1.695-1.441-3.953-0.377-6.773c1.078-2.857,2.914-5.125,5.52-6.811c2.604-1.68,5.576-2.52,8.908-2.52
	c1.416,0,2.66,0.156,3.734,0.469c1.08,0.318,2.023,0.793,2.846,1.434l2.557-6.779H544.651L544.651,405.981z M530.524,420.188
	c0.453-1.199,0.402-2.15-0.143-2.863c-0.549-0.713-1.502-1.068-2.859-1.068c-1.361,0-2.584,0.355-3.672,1.068
	c-1.082,0.713-1.848,1.664-2.301,2.863c-0.447,1.189-0.396,2.139,0.146,2.854c0.549,0.717,1.5,1.078,2.863,1.078
	c1.355,0,2.578-0.361,3.668-1.078C529.308,422.327,530.077,421.378,530.524,420.188L530.524,420.188z M480.815,429.06l6.691-17.752
	h8.771l-0.695,1.842c1.455-0.744,2.885-1.295,4.287-1.652c1.404-0.354,2.836-0.535,4.295-0.535c2.877,0,4.732,0.662,5.568,1.984
	c0.83,1.32,0.705,3.416-0.377,6.287l-3.705,9.826h-8.77l3.145-8.344c0.5-1.32,0.607-2.229,0.328-2.732
	c-0.279-0.5-1.004-0.748-2.166-0.748c-1.293,0-2.41,0.279-3.357,0.834c-0.945,0.561-1.604,1.326-1.973,2.309l-3.273,8.682H480.815
	L480.815,429.06z M468.349,426.63c-1.49,1.041-3.096,1.801-4.824,2.283c-1.732,0.479-3.781,0.717-6.162,0.717
	c-3.203,0-5.432-0.486-6.678-1.451c-1.242-0.975-1.498-2.432-0.76-4.387c0.238-0.639,0.557-1.23,0.941-1.77
	c0.387-0.543,0.816-1.01,1.299-1.4c0.957-0.756,2.068-1.316,3.328-1.68c1.27-0.371,3.49-0.646,6.682-0.83
	c1.045-0.063,2.404-0.117,4.066-0.17c3.365-0.127,5.174-0.537,5.443-1.252c0.184-0.486-0.021-0.873-0.607-1.168
	c-0.584-0.291-1.477-0.438-2.676-0.438c-1.553,0-2.709,0.131-3.477,0.4c-0.764,0.27-1.32,0.725-1.682,1.373h-9.064
	c0.994-2.154,2.693-3.697,5.098-4.633c2.4-0.936,5.955-1.4,10.662-1.4c2.566,0,4.672,0.164,6.307,0.486
	c1.635,0.328,2.787,0.809,3.447,1.449c0.723,0.691,1.105,1.52,1.148,2.5c0.045,0.971-0.275,2.365-0.961,4.184l-2.586,6.857
	c-0.248,0.66-0.379,1.174-0.377,1.525c-0.006,0.355,0.109,0.641,0.355,0.846l-0.146,0.387h-9.127
	c-0.033-0.348-0.02-0.729,0.041-1.137C468.097,427.511,468.2,427.083,468.349,426.63L468.349,426.63z M470.513,420.792
	c-1.066,0.41-2.738,0.688-5.004,0.818c-0.648,0.031-1.152,0.063-1.51,0.096c-1.326,0.104-2.266,0.273-2.816,0.512
	c-0.553,0.238-0.926,0.602-1.111,1.098c-0.209,0.555-0.098,0.988,0.342,1.295c0.441,0.303,1.168,0.455,2.186,0.455
	c1.93,0,3.605-0.348,5.021-1.053c1.416-0.703,2.346-1.631,2.781-2.789c0.047-0.121,0.08-0.211,0.096-0.27
	C470.515,420.896,470.517,420.845,470.513,420.792L470.513,420.792z M435.704,429.06l8.703-23.078h8.939l-8.703,23.078H435.704
	L435.704,429.06z M433.946,423.644c-1.41,1.971-3.506,3.467-6.299,4.486s-6.197,1.533-10.207,1.533
	c-4.449,0-7.582-0.826-9.391-2.479c-1.811-1.648-2.148-3.984-1.012-6.996c1.141-3.021,3.238-5.363,6.291-7.01
	c3.057-1.654,6.811-2.48,11.26-2.48c4.73,0,7.965,0.932,9.701,2.797c1.734,1.863,1.916,4.6,0.559,8.211l-0.119,0.311h-18.979
	c-0.363,0.963-0.195,1.701,0.498,2.23c0.691,0.521,1.844,0.787,3.451,0.787c1.064,0,1.992-0.117,2.787-0.354
	c0.797-0.24,1.436-0.582,1.918-1.037H433.946L433.946,423.644z M416.737,418.222h10.412c0.248-0.982,0.041-1.738-0.615-2.275
	c-0.65-0.535-1.701-0.805-3.143-0.805c-1.549,0-2.898,0.266-4.037,0.789C418.214,416.458,417.341,417.224,416.737,418.222
	L416.737,418.222z M404.478,421.255c-1.375,2.797-3.502,4.898-6.375,6.305c-2.879,1.4-6.482,2.104-10.826,2.104
	c-4.484,0-7.646-0.826-9.473-2.479c-1.828-1.648-2.17-3.984-1.035-6.996c1.133-3,3.236-5.336,6.309-6.994
	c3.078-1.666,6.863-2.496,11.348-2.496c4.17,0,7.178,0.646,9.025,1.934c1.84,1.291,2.486,3.207,1.945,5.744h-9.41
	c-0.049-0.814-0.352-1.426-0.902-1.832c-0.555-0.406-1.359-0.613-2.426-0.613c-1.559,0-2.932,0.375-4.098,1.119
	c-1.18,0.75-2.012,1.787-2.512,3.107c-0.482,1.277-0.434,2.299,0.154,3.049c0.582,0.756,1.609,1.129,3.082,1.129
	c1.223,0,2.355-0.271,3.406-0.828c1.043-0.549,1.852-1.301,2.414-2.252H404.478L404.478,421.255z M362.226,426.63
	c-1.486,1.041-3.094,1.801-4.824,2.283c-1.73,0.479-3.779,0.717-6.16,0.717c-3.203,0-5.434-0.486-6.678-1.451
	c-1.242-0.975-1.498-2.432-0.762-4.387c0.242-0.639,0.557-1.23,0.941-1.77c0.387-0.543,0.818-1.01,1.301-1.4
	c0.955-0.756,2.068-1.316,3.328-1.68c1.27-0.371,3.49-0.646,6.68-0.83c1.047-0.063,2.406-0.117,4.07-0.17
	c3.361-0.127,5.172-0.537,5.441-1.252c0.182-0.486-0.023-0.873-0.605-1.168c-0.588-0.291-1.479-0.438-2.678-0.438
	c-1.557,0-2.709,0.131-3.479,0.4c-0.762,0.27-1.318,0.725-1.682,1.373h-9.063c0.996-2.154,2.693-3.697,5.098-4.633
	c2.398-0.936,5.953-1.4,10.66-1.4c2.568,0,4.674,0.164,6.307,0.486c1.639,0.328,2.789,0.809,3.449,1.449
	c0.721,0.691,1.104,1.52,1.15,2.5c0.043,0.971-0.281,2.365-0.963,4.184l-2.586,6.857c-0.25,0.66-0.379,1.174-0.377,1.525
	c-0.006,0.355,0.109,0.641,0.352,0.846l-0.143,0.387h-9.129c-0.033-0.348-0.016-0.729,0.043-1.137
	C361.974,427.511,362.077,427.083,362.226,426.63L362.226,426.63z M364.392,420.792c-1.068,0.41-2.736,0.688-5.004,0.818
	c-0.648,0.031-1.152,0.063-1.51,0.096c-1.324,0.104-2.268,0.273-2.818,0.512s-0.922,0.602-1.109,1.098
	c-0.209,0.555-0.098,0.988,0.34,1.295c0.445,0.303,1.17,0.455,2.186,0.455c1.93,0,3.605-0.348,5.021-1.053
	c1.418-0.703,2.348-1.631,2.785-2.789c0.045-0.121,0.078-0.211,0.096-0.27C364.394,420.896,364.394,420.845,364.392,420.792
	L364.392,420.792z M310.872,434.802l8.857-23.494h8.361l-0.582,1.717c1.314-0.723,2.682-1.262,4.109-1.627
	c1.428-0.361,2.922-0.539,4.482-0.539c3.279,0,5.574,0.852,6.887,2.547s1.438,3.955,0.373,6.783
	c-1.074,2.848-2.908,5.113-5.514,6.795c-2.607,1.686-5.578,2.525-8.912,2.525c-1.414,0-2.658-0.158-3.732-0.471
	c-1.08-0.316-2.023-0.791-2.844-1.438l-2.717,7.201H310.872L310.872,434.802z M325.153,420.188
	c-0.449,1.189-0.398,2.139,0.156,2.854c0.555,0.717,1.5,1.078,2.852,1.078c1.367,0,2.598-0.361,3.686-1.078
	c1.082-0.715,1.85-1.664,2.297-2.854c0.453-1.199,0.402-2.15-0.141-2.863c-0.551-0.713-1.51-1.068-2.877-1.068
	c-1.352,0-2.566,0.355-3.662,1.068C326.374,418.038,325.606,418.989,325.153,420.188L325.153,420.188z M280.136,422.097
	l11.893-0.018c-0.137,0.619,0.109,1.094,0.747,1.432c0.642,0.334,1.617,0.502,2.945,0.502c1.327,0,2.366-0.137,3.131-0.41
	c0.757-0.27,1.24-0.682,1.444-1.229c0.183-0.484,0.044-0.875-0.416-1.172c-0.457-0.291-1.26-0.506-2.396-0.639l-7.023-0.82
	c-2.908-0.33-4.92-1.064-6.024-2.213c-1.105-1.146-1.293-2.678-0.57-4.596c0.967-2.563,2.832-4.428,5.598-5.607
	c2.771-1.176,6.693-1.764,11.775-1.764c5.278,0,8.981,0.588,11.104,1.764c2.129,1.18,2.824,3.006,2.092,5.496h-11.409
	c0.146-0.723-0.127-1.268-0.826-1.631c-0.694-0.367-1.793-0.553-3.302-0.553c-1.1,0-2.012,0.139-2.746,0.412
	c-0.729,0.27-1.182,0.643-1.358,1.105c-0.162,0.434-0.043,0.768,0.357,0.992c0.399,0.229,1.326,0.439,2.782,0.635l8.511,1.143
	c2.663,0.363,4.475,1.098,5.442,2.207c0.959,1.109,1.086,2.605,0.379,4.48c-1.057,2.807-3.213,4.867-6.474,6.178
	c-3.258,1.311-7.862,1.965-13.814,1.965c-4.723,0-8.105-0.66-10.133-1.98C279.809,426.456,279.241,424.563,280.136,422.097
	L280.136,422.097z"/>
<path fill-rule="evenodd" clip-rule="evenodd" fill="#FFFFFF" d="M259.145,424.298c-1.296,1.824-3.224,3.203-5.795,4.146
	c-2.568,0.943-5.7,1.418-9.389,1.418c-4.093,0-6.976-0.764-8.64-2.291c-1.667-1.523-1.974-3.684-0.93-6.467
	c1.047-2.793,2.979-4.957,5.788-6.48c2.812-1.529,6.266-2.291,10.358-2.291c4.352,0,7.326,0.859,8.923,2.584
	c1.595,1.725,1.766,4.252,0.514,7.588l-0.108,0.289h-17.459c-0.334,0.889-0.182,1.572,0.458,2.063
	c0.636,0.482,1.695,0.727,3.175,0.727c0.979,0,1.832-0.109,2.563-0.328c0.735-0.219,1.321-0.537,1.764-0.957H259.145
	L259.145,424.298z M243.312,419.288h9.58c0.229-0.91,0.039-1.607-0.565-2.105c-0.601-0.494-1.566-0.742-2.89-0.742
	c-1.425,0-2.667,0.244-3.714,0.729C244.671,417.655,243.868,418.364,243.312,419.288L243.312,419.288z M213.439,429.304
	l-2.272-16.41h9.301l0.119,7.328c0.005,0.398-0.01,0.814-0.043,1.244c-0.037,0.428-0.096,0.867-0.186,1.328
	c0.242-0.391,0.499-0.785,0.777-1.182c0.271-0.396,0.578-0.811,0.91-1.25l5.686-7.469h9.187l-14.569,16.41H213.439L213.439,429.304z
	 M201.742,411.552l1.563-4.166h8.225l-1.564,4.166H201.742L201.742,411.552z M195.081,429.304l6.158-16.41h8.223l-6.156,16.41
	H195.081L195.081,429.304z M198.454,407.972l-8.006,21.332h-7.675l0.548-1.617c-1.234,0.68-2.506,1.188-3.821,1.525
	c-1.314,0.338-2.686,0.508-4.112,0.508c-3.016,0-5.126-0.785-6.335-2.354c-1.208-1.568-1.323-3.654-0.346-6.262
	c0.991-2.643,2.682-4.738,5.079-6.293c2.396-1.555,5.128-2.332,8.193-2.332c1.303,0,2.447,0.148,3.437,0.436
	c0.993,0.293,1.86,0.732,2.618,1.322l2.35-6.266H198.454L198.454,407.972z M185.458,421.104c0.415-1.107,0.369-1.986-0.132-2.646
	c-0.505-0.658-1.382-0.988-2.63-0.988c-1.253,0-2.376,0.33-3.377,0.988c-0.996,0.66-1.702,1.539-2.118,2.646
	c-0.412,1.1-0.366,1.977,0.134,2.637c0.505,0.666,1.381,0.998,2.635,0.998c1.246,0,2.372-0.332,3.375-0.998
	C184.339,423.081,185.046,422.204,185.458,421.104L185.458,421.104z M143.181,429.528h1.781c1.146,0,2.053-0.182,2.71-0.541
	c0.662-0.361,1.297-1.021,1.907-1.973l-3.023-14.121h8.81l0.742,5.838c0.073,0.479,0.114,0.928,0.123,1.354
	c0.006,0.424-0.009,0.838-0.061,1.248c0.207-0.32,0.449-0.664,0.727-1.029c0.276-0.361,0.588-0.752,0.935-1.172l5.239-6.238h8.59
	l-12.972,14.203c-1.44,1.572-2.627,2.814-3.565,3.723c-0.932,0.908-1.676,1.541-2.237,1.916c-0.875,0.572-1.75,0.98-2.608,1.219
	c-0.864,0.24-1.957,0.355-3.279,0.355h-5.612L143.181,429.528L143.181,429.528z M116.7,429.304l8.004-21.332h8.069l-3.785,10.086
	l7.752-5.164h10.811l-9.269,5.682l3.945,10.729h-9.677l-1.934-6.381l-4.464,2.689l-1.386,3.691H116.7L116.7,429.304z
	 M86.433,422.866l10.94-0.014c-0.128,0.572,0.099,1.012,0.686,1.324c0.591,0.307,1.488,0.463,2.71,0.463
	c1.221,0,2.178-0.127,2.88-0.381c0.695-0.248,1.141-0.629,1.33-1.133c0.168-0.447,0.041-0.809-0.385-1.084
	c-0.419-0.27-1.157-0.469-2.203-0.592l-6.461-0.754c-2.676-0.309-4.525-0.988-5.542-2.047c-1.017-1.063-1.189-2.479-0.523-4.25
	c0.888-2.369,2.604-4.092,5.15-5.182c2.549-1.09,6.156-1.633,10.831-1.633c4.856,0,8.263,0.543,10.215,1.633
	c1.958,1.09,2.599,2.779,1.925,5.078H107.49c0.133-0.668-0.119-1.172-0.762-1.508c-0.638-0.338-1.648-0.51-3.037-0.51
	c-1.01,0-1.849,0.129-2.524,0.383c-0.67,0.248-1.088,0.59-1.251,1.02c-0.149,0.4-0.038,0.709,0.329,0.918
	c0.369,0.213,1.221,0.406,2.561,0.588l7.83,1.055c2.451,0.334,4.115,1.014,5.006,2.041c0.885,1.025,1,2.408,0.351,4.141
	c-0.974,2.594-2.958,4.5-5.957,5.711c-2.999,1.211-7.232,1.816-12.709,1.816c-4.346,0-7.457-0.611-9.322-1.832
	C86.131,426.897,85.61,425.149,86.433,422.866L86.433,422.866z"/>
<path fill-rule="evenodd" clip-rule="evenodd" d="M270.917,373.328c0.706-2.777-0.831-5.728-3.371-6.976
	c-2.608-1.283-6.1-0.779-7.703,1.844c-3.256-5.244-6.51-10.488-9.765-15.732c1.112,7.699,2.453,15.397,3.333,23.125
	c0.307,2.688,0.294,6.478-1.574,8.647c-2.8,3.252-5.6,6.51-8.399,9.766c-3.295,3.828-6.59,7.658-9.886,11.49
	c7.781-2.861,15.562-5.728,23.342-8.593c2.275-0.841,4.274,2.883,5.058,4.511c1.159,2.4,2.318,4.807,3.477,7.213
	c4.634,9.617,9.268,19.232,13.901,28.85c0.825,1.709,1.648,3.42,2.471,5.127c-1.813-7.479-3.627-14.959-5.441-22.438
	c-1.957-8.072-3.913-16.145-5.871-24.218c-0.664-2.738-1.03-5.972-0.294-8.734c0.291-1.093,1.011-1.853,1.686-2.741
	c1.548-2.038,3.095-4.075,4.644-6.115c2.105-2.77,4.207-5.539,6.311-8.309C278.863,371.139,274.89,372.233,270.917,373.328"/>
<path fill-rule="evenodd" clip-rule="evenodd" fill="#FFFFFF" d="M263.5,372.428c-1.187-1.591-1.002-3.667,0.463-4.716
	c1.524-1.09,3.87-0.665,5.22,0.947c1.352,1.612,1.209,3.816-0.313,4.905c-0.511,0.368-1.114,0.56-1.741,0.597l0.213,1.986
	c0.308-0.034,0.625-0.095,0.954-0.187l9.892-2.725l-8.065,10.619c-1.464,1.927-1.648,7.293-0.577,11.708l6.026,24.865
	l-10.127-21.021c-2.046-4.243-5.108-6.653-7.515-5.767l-15.389,5.663l12.692-14.752c1.819-2.117,2.348-7.131,1.819-10.797
	l-1.628-11.247l5.553,8.946c0.483,0.776,0.949,1.458,1.408,2.044L263.5,372.428L263.5,372.428z"/>
</svg>
